<svg id="Capa_1" enable-background="new 0 0 512 512" height="512" viewBox="0 0 512 512" width="512" xmlns="http://www.w3.org/2000/svg"><g><g><g><path d="m488.88 102.56c0-20.632-18.73-42.28-40.29-42.28h-71.507v-50.28c0-5.523-4.478-10-10-10h-160.396c-2.577 0-5.141 1.042-6.984 2.843l-58.858 57.437h-77.436c-.256 0-.512.01-.767.029-22.163 1.705-39.523 20.264-39.523 42.251l.004 291.855c0 22.216 18.073 40.29 40.289 40.29h133.748l-12.538 57.295h-30.164c-5.522 0-10 4.477-10 10s4.478 10 10 10h199.131c5.522 0 10-4.477 10-10s-4.478-10-10-10h-30.026l-11.539-57.295h136.566c22.216 0 40.29-18.074 40.29-40.29zm-40.824-22.28c10.89 1.306 20.824 11.095 20.824 22.28v264.058h-24.19v-252.128c0-5.523-4.478-10-10-10h-57.606v-24.21zm-90.976 223.24h-202.16v-223.24h51.767c5.522 0 10-4.477 10-10v-50.28h140.396zm-160.393-269.789v26.549h-27.205zm-132.857 46.549h71.086v24.21h-57.606c-5.522 0-10 4.477-10 10v252.128h-24.19v-264.058c-.001-11.295 9.258-21.217 20.71-22.28zm239.332 411.72h-98.067l12.539-57.295h73.99zm145.429-77.295h-385.179c-11.188 0-20.289-9.102-20.289-20.29v-7.795h169.574c5.522 0 10-4.477 10-10 0-1.381-.28-2.697-.786-3.893-1.518-3.59-5.072-6.109-9.215-6.109h-125.386v-242.128h47.606v189.034c0 5.523 4.478 10 10 10h222.167c5.522 0 10-4.477 10-10v-189.034h47.606v242.128h-124.018c-5.522 0-10 4.477-10 10v.001.001c0 5.523 4.478 10 10 10h168.21v7.795c0 11.188-9.103 20.29-20.29 20.29z"/><path d="m295.278 230.343h-78.558c-5.522 0-10 4.477-10 10s4.478 10 10 10h78.558c5.522 0 10-4.477 10-10s-4.477-10-10-10z"/><path d="m254.453 99.401c-1.879.369-3.664 1.307-5.037 2.643l-36.959 35.979c-3.957 3.853-4.042 10.184-.189 14.141 3.852 3.957 10.184 4.042 14.141.19l19.983-19.454v68.458c0 5.523 4.478 10 10 10s10-4.477 10-10v-68.458l19.983 19.454c1.944 1.892 4.461 2.834 6.975 2.834 2.604 0 5.206-1.011 7.166-3.024 3.853-3.958 3.768-10.289-.189-14.141l-36.959-35.979c-2.331-2.267-5.728-3.271-8.915-2.643z"/><path d="m266.12 372.8c-1.617-3.944-5.729-6.461-9.972-6.144-4.356.325-8.047 3.52-9.014 7.776-1.984 8.728 8.185 15.488 15.505 10.358 3.78-2.649 5.257-7.727 3.481-11.99z"/></g></g></g></svg>