<?xml version="1.0" encoding="UTF-8"?>
<svg xmlns="http://www.w3.org/2000/svg" viewBox="0 0 512 512" width="512" height="512"><g id="outline"><path d="M256,16A240,240,0,0,0,86.294,425.705,240,240,0,1,0,425.706,86.3,238.433,238.433,0,0,0,256,16ZM414.392,414.392A224,224,0,0,1,97.608,97.608,224,224,0,0,1,414.392,414.392Z"/><path d="M256,48C141.309,48,48,141.309,48,256s93.309,208,208,208,208-93.309,208-208S370.691,48,256,48Zm0,400a191.191,191.191,0,0,1-126.143-47.376A81.831,81.831,0,0,1,176.068,343.3l32.265-14.666a8,8,0,0,0,.943-14.059,88,88,0,1,1,93.448,0,8,8,0,0,0,.943,14.059L335.932,343.3a82.083,82.083,0,0,1,46.214,57.319A191.193,191.193,0,0,1,256,448Zm139.306-60.01a98.13,98.13,0,0,0-52.753-59.254l-19.775-8.988a104,104,0,1,0-133.556,0l-19.775,8.988a97.8,97.8,0,0,0-52.756,59.251A191.318,191.318,0,0,1,64,256C64,150.131,150.131,64,256,64s192,86.131,192,192A191.315,191.315,0,0,1,395.306,387.99Z"/><path d="M405.1,333.9a7.993,7.993,0,0,0,10.625-3.889c1.06-2.285,2.085-4.626,3.046-6.957a8,8,0,0,0-14.792-6.1c-.873,2.119-1.8,4.245-2.768,6.322A8,8,0,0,0,405.1,333.9Z"/><path d="M416,256a161.446,161.446,0,0,1-2.9,30.485,8,8,0,1,0,15.711,3.03A177.5,177.5,0,0,0,432,256a175.565,175.565,0,0,0-10.017-58.666,8,8,0,1,0-15.085,5.332A159.634,159.634,0,0,1,416,256Z"/><circle cx="256" cy="108" r="12"/><circle cx="294" cy="108" r="10"/><circle cx="218" cy="108" r="10"/><circle cx="228" cy="228" r="12"/><circle cx="284" cy="228" r="12"/><path d="M274.343,266.343a25.969,25.969,0,0,1-36.686,0,8,8,0,0,0-11.314,11.314,41.988,41.988,0,0,0,59.314,0,8,8,0,0,0-11.314-11.314Z"/></g></svg>
