<?xml version="1.0"?>
<svg xmlns="http://www.w3.org/2000/svg" id="Outline" viewBox="0 0 512 512" width="512" height="512"><path d="M233.824,359.19a8,8,0,1,0-13.012,9.31,153.115,153.115,0,0,0,13.425,16.262,8,8,0,1,0,11.605-11.013A137.319,137.319,0,0,1,233.824,359.19Z"/><path d="M488.146,284.707a8.008,8.008,0,0,0-8.667,7.273c-.135,1.556-.3,3.126-.488,4.67a137.534,137.534,0,0,1-2.438,13.984,8,8,0,1,0,15.6,3.561,154.163,154.163,0,0,0,2.722-15.61c.21-1.722.393-3.476.545-5.212A8,8,0,0,0,488.146,284.707Z"/><path d="M339.412,416.042a176.008,176.008,0,0,0-83.724-260.169C264.4,139.856,272,122.8,272,112a48,48,0,0,0-96,0c0,8.173,4.35,19.928,10.243,32.1C91.851,147.154,16,224.88,16,320c0,97.047,78.953,176,176,176a175.73,175.73,0,0,0,136.373-64.873c2.97.313,5.955.567,8.918.706.128,0,.254.008.381.008a8,8,0,0,0,1.74-15.8ZM224,80a32.036,32.036,0,0,1,32,32c0,12.3-17.591,43.418-32,65.608C209.591,155.418,192,124.3,192,112A32.036,32.036,0,0,1,224,80Zm-6.583,116.547a8,8,0,0,0,13.166,0c1.742-2.523,9.049-13.219,17.051-26.6A160.057,160.057,0,0,1,352,320c0,1.1-.02,2.194-.042,3.289-19.117,3-33.342.014-42.3-8.946-9.351-9.351-15.048-17.929-20.074-25.5-6.022-9.067-11.222-16.9-20.151-21.721-9.269-5.006-21.219-5.936-38.747-3.015-23.852,3.973-27-2.222-31.75-11.6-3.614-7.127-8.11-16-20.4-20.095-8.553-2.851-13.743-6.506-15.428-10.862-2.8-7.24,3.339-18.189,8.272-26.987,1.374-2.451,2.672-4.766,3.78-6.98,3.384-6.76,3.963-15.777,1.764-26.866,4.967-.467,10-.716,15.082-.716.867,0,1.739.013,2.61.027C204.583,177.786,215.261,193.425,217.417,196.547ZM66,221.506a21.046,21.046,0,0,1,7.349,6.932c7.016,10.524,17.521,17.925,27.68,25.083C115.5,263.718,128,272.526,128,288c0,13.254-4.307,16.915-11.443,22.98-7.1,6.033-15.933,13.542-20.318,31.079C95,347,94.146,351.838,93.317,356.517,89.461,378.284,86.829,393,52.431,398.152A159.684,159.684,0,0,1,66,221.506ZM192,480A159.91,159.91,0,0,1,61.672,412.715c39.427-8.431,43.645-32.206,47.4-53.407.781-4.409,1.588-8.967,2.689-13.368,3.138-12.553,8.708-17.287,15.158-22.769C134.925,316.367,144,308.654,144,288c0-23.774-17.937-36.411-33.761-47.56-9.371-6.6-18.223-12.838-23.586-20.882a37.7,37.7,0,0,0-10.029-10.295,159.9,159.9,0,0,1,84.43-46.248c1.614,7.683,1.573,13.848-.209,17.407-.94,1.88-2.148,4.034-3.427,6.315-6.228,11.106-14.756,26.317-9.239,40.583,3.488,9.018,12,15.838,25.291,20.269,5.776,1.926,7.913,5.681,11.194,12.152,4.709,9.29,10.885,21.48,34.058,21.479a89.156,89.156,0,0,0,14.593-1.329c28.012-4.668,32.078,1.451,42.939,17.805,5.171,7.788,11.608,17.48,22.089,27.961,9.841,9.84,23.276,14.779,40.109,14.779a99.386,99.386,0,0,0,12.344-.818,159.114,159.114,0,0,1-29.426,74.41c-.7-.118-1.4-.226-2.091-.355a7.991,7.991,0,0,0-7.847,12.672A159.639,159.639,0,0,1,192,480Z"/><path d="M476.108,338.119a8,8,0,0,0-10.753,3.518,135.461,135.461,0,0,1-9.689,16.192,8,8,0,1,0,13.122,9.154,151.5,151.5,0,0,0,10.838-18.111A8,8,0,0,0,476.108,338.119Z"/><path d="M433.658,382.381A136.968,136.968,0,0,1,418.627,393.8a8,8,0,1,0,8.775,13.379,153.151,153.151,0,0,0,16.79-12.752,8,8,0,1,0-10.534-12.043Z"/><path d="M467.582,214.423a8,8,0,0,0,6.853-12.115,153.007,153.007,0,0,0-12.071-17.294,8,8,0,0,0-12.456,10.043,136.9,136.9,0,0,1,10.8,15.478A8,8,0,0,0,467.582,214.423Z"/><path d="M479.429,230.666a8,8,0,0,0-5.313,9.989,135.1,135.1,0,0,1,4.237,18.376,8,8,0,0,0,7.893,6.755,8.131,8.131,0,0,0,1.256-.1,8,8,0,0,0,6.656-9.149,151.246,151.246,0,0,0-4.74-20.56A8,8,0,0,0,479.429,230.666Z"/><path d="M389.079,408.4a135.3,135.3,0,0,1-18.176,4.98,8,8,0,1,0,3.139,15.689,151.266,151.266,0,0,0,20.333-5.571,8,8,0,0,0-5.3-15.1Z"/><path d="M295.589,357.47c-6.292-18.876-19.377-21.168-28.931-22.841-7.986-1.4-14.293-2.5-20-11.067a7.992,7.992,0,0,0-1.133-1.35c-21.6-20.613-42.9-19.606-56.958-15.132a67.99,67.99,0,0,0-24.935,14.611c-9,8.78-11.789,18.21-8.289,28.029,2.719,7.623,8.884,14.135,14.846,20.434C176.978,377.328,184,384.746,184,392c0,25.949,5.184,42.049,16.314,50.667,5.584,4.324,12.433,6.491,20.466,6.49a57.945,57.945,0,0,0,14.449-2c16.632-4.3,32.288-15.071,43.932-29.819.68.323,1.355.662,2.039.975a8,8,0,0,0,6.843-14.452C297.1,387.159,299.852,370.257,295.589,357.47Zm-64.365,74.192c-9.446,2.443-16.549,1.888-21.115-1.646C203.4,424.822,200,412.031,200,392c0-13.626-9.666-23.837-18.194-32.846-13.1-13.842-15.321-17.9-7-26.018l.042-.041c.772-.764,13.064-12.634,29.975-12.634,8.763,0,18.77,3.191,29.051,12.763,9.428,13.559,21.3,15.639,30.018,17.165,8.815,1.544,13.239,2.319,16.514,12.141,2.787,8.363.309,21.3-6.468,33.765-.011.021-.023.041-.035.061-.883-.535-1.77-1.065-2.639-1.62a8,8,0,1,0-8.609,13.487c.719.459,1.457.894,2.185,1.341C255.59,420.5,243.719,428.431,231.224,431.662Z"/><path d="M483.989,119.189a8,8,0,0,0-3.824-5.882l-17.572-10.544a23.962,23.962,0,0,0-25.845.73L425.137,91.882l39.6-39.6a8,8,0,0,0,0-11.313L450.941,27.177a23.963,23.963,0,0,0-29.318-3.61l-40.5,24.3-1.241-1.24A32,32,0,0,0,334.261,47c-12.076,12.47-11.737,32.779.755,45.271l.852.851-24.3,40.5a23.965,23.965,0,0,0,3.61,29.318l13.794,13.794a8,8,0,0,0,11.313,0l39.6-39.6,11.611,11.611a23.962,23.962,0,0,0-.73,25.845l10.544,17.572a8,8,0,0,0,12.516,1.541l67.883-67.883A8,8,0,0,0,483.989,119.189Zm-74.234,55.958-5.272-8.787a7.987,7.987,0,0,1,1.2-9.772l2.481-2.481a8,8,0,0,0,0-11.313l-22.628-22.627a8,8,0,0,0-11.313,0l-39.6,39.6-8.137-8.138a7.989,7.989,0,0,1-1.2-9.773L352.8,96a8,8,0,0,0-1.2-9.772l-5.268-5.268c-6.353-6.354-6.611-16.594-.575-22.828a16,16,0,0,1,22.814-.189l5.657,5.657A8,8,0,0,0,384,64.8l45.857-27.514a7.991,7.991,0,0,1,9.772,1.2l8.138,8.137-39.6,39.6a8,8,0,0,0,0,11.313l22.627,22.628a8,8,0,0,0,11.313,0l2.481-2.481a7.988,7.988,0,0,1,9.772-1.2l8.787,5.272Z"/><circle cx="224" cy="112" r="16"/></svg>
