<svg height="681pt" viewBox="-64 -21 681 681.3413" width="681pt" xmlns="http://www.w3.org/2000/svg"><path d="m339.445312 339.453125h-18.710937v-18.714844h18.710937zm-31.1875 0h-18.714843v-18.714844h18.714843zm0 0"/><path d="m-2.738281 581.894531 216.390625 56.945313v-638.7578128l-216.390625 56.9453128zm18.710937-510.441406 178.964844-47.097656v590.210937l-178.964844-47.097656zm0 0"/><path d="m140.039062 286.308594c-18.28125 0-33.148437 14.875-33.148437 33.152344 0 18.28125 14.867187 33.152343 33.148437 33.152343s33.152344-14.871093 33.152344-33.152343c0-18.277344-14.871094-33.152344-33.152344-33.152344zm0 47.589844c-7.957031 0-14.433593-6.472657-14.433593-14.4375 0-7.960938 6.476562-14.433594 14.433593-14.433594 7.964844 0 14.441407 6.472656 14.441407 14.433594 0 7.964843-6.476563 14.4375-14.441407 14.4375zm0 0"/><path d="m324.988281 244.589844h18.710938v-182.960938h-105.097657v18.714844h86.386719zm0 0"/><path d="m324.988281 558.582031h-86.386719v18.714844h105.097657v-160.925781h-18.710938zm0 0"/><path d="m550.714844 330.480469-166.917969-126.832031v66.519531h-145.195313v18.714843h163.910157v-47.515624l117.273437 89.113281-117.273437 89.113281v-47.507812h-163.910157v18.710937h145.195313v66.523437zm0 0"/><path d="m284.527344 244.589844h18.714844v-142.503906h-64.640626v18.714843h45.925782zm0 0"/><path d="m303.242188 416.371094h-18.714844v101.753906h-45.925782v18.710938h64.640626zm0 0"/></svg>